<svg width="300" height="233" fill="none" xmlns="http://www.w3.org/2000/svg"><g clip-path="url(#a)"><path opacity=".8" d="M273.693 221.077H15.5216V54.0952c0-1.3967.5549-2.7361 1.5424-3.7237.9876-.9876 2.3271-1.5424 3.7237-1.5424H268.427c1.397 0 2.736.5548 3.724 1.5424.987.9876 1.542 2.327 1.542 3.7237V221.077Z" fill="url(#b)"/><path d="M24.3306 51.8621H264.867c1.397 0 2.736.5548 3.724 1.5424.987.9875 1.542 2.327 1.542 3.7236V221.077H19.0779V57.1315c-.0009-1.3949.5517-2.7332 1.5365-3.7212.9848-.9879 2.3213-1.5447 3.7162-1.5482Z" fill="#fff"/><path d="M262.051 61.7075H27.1603V215.774H262.051V61.7075Z" fill="#F5F5F5"/><path opacity=".8" d="M261.954 69.1868H28.0602V207.798H261.954V69.1868Z" fill="#E0E0E0"/><path d="M261.954 61.821H28.0602v7.3659H261.954V61.821Z" fill="#F5F5F5"/><path d="M33.0763 67.1804c.9867 0 1.7865-.7999 1.7865-1.7865 0-.9866-.7998-1.7865-1.7865-1.7865-.9866 0-1.7864.7999-1.7864 1.7865 0 .9866.7998 1.7865 1.7864 1.7865Z" fill="#FF5252"/><path d="M37.9858 67.1804c.9866 0 1.7865-.7999 1.7865-1.7865 0-.9866-.7999-1.7865-1.7865-1.7865-.9867 0-1.7865.7999-1.7865 1.7865 0 .9866.7998 1.7865 1.7865 1.7865Z" fill="#FF0"/><path d="M42.8986 67.1804c.9866 0 1.7865-.7999 1.7865-1.7865 0-.9866-.7999-1.7865-1.7865-1.7865-.9866 0-1.7865.7999-1.7865 1.7865 0 .9866.7999 1.7865 1.7865 1.7865Z" fill="#69F0AE"/><path opacity=".8" d="M280.915 232.149c-14.371 1.09-261.1772.666-269.7996 0C-.189967 226.699.0166755 205.555.0166755 205.555L113.204 204.799l.38 6.436h48.435l1.893-5.667h125.433s2.493 19.385-8.43 26.581Z" fill="url(#c)"/><path d="M287.508 207.258H164.522c.473.548.78 1.221.882 1.938.102.717-.005 1.448-.307 2.107-.302.658-.787 1.216-1.397 1.606-.611.39-1.32.597-2.045.595h-46.954c-.725.002-1.434-.205-2.045-.595-.61-.39-1.095-.948-1.397-1.606-.302-.659-.409-1.39-.307-2.107.102-.717.408-1.39.882-1.938H1.70315s-.18998 18.361 10.97875 23.107c8.5158.567 252.3051.947 266.5001 0 10.802-6.262 8.326-23.107 8.326-23.107Z" fill="#F5F5F5"/><path d="M27.257 212.748c.8357 0 1.5131-.678 1.5131-1.514 0-.835-.6774-1.513-1.5131-1.513-.8357 0-1.5132.678-1.5132 1.513 0 .836.6775 1.514 1.5132 1.514ZM31.7998 212.748c.8357 0 1.5132-.678 1.5132-1.514 0-.835-.6775-1.513-1.5132-1.513-.8357 0-1.5132.678-1.5132 1.513 0 .836.6775 1.514 1.5132 1.514ZM36.3393 212.748c.8357 0 1.5132-.678 1.5132-1.514 0-.835-.6775-1.513-1.5132-1.513-.8357 0-1.5132.678-1.5132 1.513 0 .836.6775 1.514 1.5132 1.514Z" fill="#E0E0E0"/><path d="M139.944 125.88h10.729c12.331 0 24.158 4.899 32.877 13.618 8.72 8.72 13.618 20.546 13.618 32.877v33.8H93.4496v-33.8c0-12.331 4.8986-24.157 13.6184-32.877 8.719-8.719 20.545-13.618 32.876-13.618Z" fill="#00BAFC"/><path d="M145.411 107.803c26.179 0 47.401-21.2228 47.401-47.4018 0-26.1791-21.222-47.4014-47.401-47.4014-26.18 0-47.4019 21.2223-47.4019 47.4014 0 26.179 21.2219 47.4018 47.4019 47.4018Z" fill="#333"/><path opacity=".1" d="M138.431 112.075h13.709c2.563 0 5.022 1.019 6.834 2.831 1.813 1.813 2.831 4.272 2.831 6.835v9.419c0 3.919-1.557 7.678-4.328 10.45-2.772 2.771-6.531 4.328-10.45 4.328h-3.496c-3.92 0-7.679-1.557-10.45-4.328-2.772-2.772-4.329-6.531-4.329-10.45v-9.406c0-2.563 1.019-5.022 2.831-6.834 1.813-1.813 4.271-2.831 6.835-2.831l.013-.014Z" fill="#000"/><path d="M128.752 111.109h33.07v19.098c0 3.919-1.557 7.678-4.328 10.45-2.772 2.771-6.531 4.328-10.45 4.328h-3.513c-3.92 0-7.679-1.557-10.45-4.328-2.772-2.772-4.329-6.531-4.329-10.45v-19.098Z" fill="#FDB797"/><path opacity=".1" d="M128.812 115.878c10.658 3.982 22.39 4.014 33.07.09v-4.059h-33.07v3.969Z" fill="#000"/><path d="M145.411 118.091c26.179 0 47.401-21.222 47.401-47.401 0-26.1791-21.222-47.4014-47.401-47.4014-26.18 0-47.4019 21.2223-47.4019 47.4014 0 26.179 21.2219 47.401 47.4019 47.401Z" fill="#FDB797"/><path opacity=".1" d="M100.092 53.9119h90.39s-7.716-36.4993-41.889-34.1895c-34.172 2.3097-48.501 34.1895-48.501 34.1895Z" fill="#000"/><path d="M100.092 52.6853h90.39s-7.716-36.4993-41.889-34.1729c-34.172 2.3264-48.501 34.1729-48.501 34.1729Z" fill="#333"/><path d="M98.989 76.9393c2.435 0 4.409-3.7022 4.409-8.2691s-1.974-8.2691-4.409-8.2691c-2.4353 0-4.4095 3.7022-4.4095 8.2691s1.9742 8.2691 4.4095 8.2691ZM191.585 76.9393c2.436 0 4.41-3.7022 4.41-8.2691s-1.974-8.2691-4.41-8.2691c-2.435 0-4.409 3.7022-4.409 8.2691s1.974 8.2691 4.409 8.2691Z" fill="#FDB797"/><path d="M107.108 28.5013c1.083-3.5396 3.053-6.9225 6.093-9.0323 2.309-1.6032 5.073-2.3731 7.722-3.313 3.921-1.3892 7.683-3.189 11.226-5.3694 4.019-2.47637 7.795-5.45937 12.222-7.09586 7.615-2.816352 16.098-1.29319 23.96.72659 1.937.49661 3.897 1.03655 5.603 2.0831 1.976 1.20987 3.493 3.02966 4.973 4.81277l12.478 15.0517c1.144 1.3765 2.293 2.7697 3.1 4.3695.752 1.5496 1.233 3.2171 1.42 4.9295.333 2.7597.073 5.686-1.333 8.0891-2.11 3.6029-6.46 5.4127-10.629 5.5793-4.17.1667-8.263-1.0432-12.269-2.2164-12.918-3.7829-25.997-7.3092-39.395-8.879-6.65-.8205-13.36-1.0381-20.048-.6499-2.1.1366-4.873 1.0999-6.149-1.0399-1.104-1.8565.456-6.186 1.026-8.0458Z" fill="#333"/><path opacity=".05" d="M113.754 169.372v36.803M177.694 169.372v36.803" stroke="#000" stroke-width="4" stroke-miterlimit="10"/><path opacity=".8" d="M300 66.7604h-59.48l-20.075 16.7381V66.7604h-13.381V.611084H300V66.7604Z" fill="url(#d)"/><path d="M298.74 1.39771h-90.416V64.654h90.416V1.39771Z" fill="#fff"/><path d="M290.148 10.6965h-71.642v1.8798h71.642v-1.8798ZM267.76 19.1624h-49.254v1.8797h49.254v-1.8797ZM277.613 27.6248h-59.107v1.8797h59.107v-1.8797Z" fill="#E0E0E0"/><path d="M265.97 36.0906h-47.464v1.8798h47.464v-1.8798ZM290.148 44.5527h-71.642v1.8798h71.642v-1.8798Z" fill="#00BAFC"/><path d="M290.148 53.0186h-71.642v1.8797h71.642v-1.8797Z" fill="#E0E0E0"/><path d="M223.792 63.4241v16.7315l18.401-18.4046-18.401 1.6731Z" fill="#fff"/></g><defs><linearGradient id="b" x1="144.607" y1="221.077" x2="144.607" y2="48.8358" gradientUnits="userSpaceOnUse"><stop stop-color="gray" stop-opacity=".25"/><stop offset=".54" stop-color="gray" stop-opacity=".12"/><stop offset="1" stop-color="gray" stop-opacity=".1"/></linearGradient><linearGradient id="c" x1="169221" y1="22572.9" x2="169221" y2="20217.9" gradientUnits="userSpaceOnUse"><stop stop-color="gray" stop-opacity=".25"/><stop offset=".54" stop-color="gray" stop-opacity=".12"/><stop offset="1" stop-color="gray" stop-opacity=".1"/></linearGradient><linearGradient id="d" x1="70901.9" y1="20613.9" x2="70901.9" y2=".611084" gradientUnits="userSpaceOnUse"><stop stop-color="gray" stop-opacity=".25"/><stop offset=".54" stop-color="gray" stop-opacity=".12"/><stop offset="1" stop-color="gray" stop-opacity=".1"/></linearGradient><clipPath id="a"><path fill="#fff" transform="translate(0 .611084)" d="M0 0h300v232.198H0z"/></clipPath></defs></svg>