<svg width="300" height="260" fill="none" xmlns="http://www.w3.org/2000/svg"><g clip-path="url(#a)"><path d="M163.752 72.6947c15.256 0 27.623-12.3674 27.623-27.6234s-12.367-27.6234-27.623-27.6234-27.624 12.3674-27.624 27.6234 12.368 27.6234 27.624 27.6234Z" fill="#A0616A"/><path d="M143.134 58.8831s5.204 39.2333-2.802 43.6369c-8.007 4.404 47.64 4.804 47.64 4.804s-12.41-34.0287-6.806-44.4376l-38.032-4.0033Z" fill="#A0616A"/><path d="m228.606 107.523-4.628 21.073-9.785 44.585-.293 2.442-3.377 28.267-2.247 18.779-1.506 12.614c-9.158 4.707-15.796 7.956-15.796 7.956s-.571-2.862-1.491-6.525c-6.428 1.927-18.32 5.124-28.399 5.763 3.67 4.09 5.357 7.933 3.069 10.769-6.904 8.55-35.408-9.361-45.378-16.04-.232 1.599-.32 3.216-.263 4.831l-7.629-5.867.755-13.501 1.273-22.843 1.601-28.647c-.505-1.226-.928-2.485-1.266-3.767-2.337-8.31-5.173-24.902-7.348-38.816-1.75-11.198-3.065-20.66-3.343-22.674-.038-.263-.056-.398-.056-.398l42.233-18.6619c3.002 6.9607 17.017 9.053 17.017 9.053 11.611-.8001 20.713-6.9231 20.713-6.9231l46.144 18.531Z" fill="#D0CDE1"/><path d="M194.178 235.234s-1.788.612-4.695 1.48c-6.428 1.927-18.32 5.124-28.399 5.762-8.677.556-16.01-.781-17.351-6.442-.575-2.434.24-4.436 2.017-6.081 5.304-4.918 19.158-6.679 30.146-7.284 3.102-.169 5.972-.248 8.362-.278 4.056-.053 6.716.03 6.716.03l.064.248 3.14 12.565Z" fill="#A0616A"/><path d="m140.771 18.942-5.164-2.0677s10.799-11.88944 25.824-10.85553l-4.226-4.65244s10.33-4.13542 19.721 6.72011c4.936 5.70646 10.648 12.41426 14.208 19.97036h5.532l-2.309 5.0832 8.08 5.0831-8.293-.913c.494 2.7836.57 5.6253.225 8.4313-.356 2.8069-1.788 5.3657-3.995 7.1365 0 0-6.405-13.2586-6.405-15.3264v5.1694s-5.165-4.6524-5.165-7.754l-2.817 3.6185-1.409-5.6862-17.373 5.6862 2.817-4.6523-10.799 1.5508 4.226-5.6863s-12.208 6.7201-12.678 12.4064c-.469 5.6862-4.042 11.0742-4.042 11.0742s-9.574-26.5822 4.042-34.3362Z" fill="#2F2E41"/><path d="M258.631 204.405c-2.813 3.05-9.785 7.644-18.237 12.618-3.144 1.848-6.491 3.753-9.906 5.646-8.148 4.519-16.679 8.996-23.718 12.614-9.158 4.707-15.796 7.956-15.796 7.956s-.571-2.862-1.491-6.525c-1.232-4.902-3.088-11.239-5.023-14.045-.067-.098-.135-.188-.202-.278-.564-.74-1.131-1.172-1.691-1.172l27.956-17.329 12.08-7.49-8.703-20.777-10.917-26.062 6.589-20.965 6.623-21.074h12.411s4.11 8.971 9.365 21.48c.785 1.871 1.596 3.82 2.423 5.834 10.811 26.295 24.289 63.014 18.237 69.569Z" fill="#D0CDE1"/><path d="M164.153 253.246c-6.904 8.55-35.408-9.361-45.378-16.04-2.171-1.453-3.463-2.374-3.463-2.374l9.12-12.163 2.889-3.851s2.585 1.372 6.405 3.603c.139.083.278.165.421.248 3.294 1.934 7.43 4.463 11.603 7.284 5.759 3.895 11.581 8.339 15.334 12.524 3.67 4.09 5.357 7.933 3.069 10.769Z" fill="#A0616A"/><path d="M133.726 222.421c-1.02-.004-2.038.079-3.043.248-8.636 1.484-11.183 9.301-11.908 14.537-.232 1.6-.32 3.216-.263 4.831l-7.629-5.867-2.78-2.138c-6.69-2.333-12.6516-6.476-17.8205-11.363-4.4841-4.315-8.5064-9.085-12.0019-14.233-3.4815-5.075-6.5852-10.398-9.2859-15.928-.7536-1.543-1.1586-3.232-1.1865-4.949-.028-1.717.322-3.42 1.025-4.986l9.4474-21.055 13.8087-30.773c.1015-.733.2129-1.449.3343-2.149 2.7385-15.702 10.0744-22.674 10.0744-22.674h5.605l3.749 22.674 4.658 28.17-3.264 10.646-7.543 24.586 7.208 7.828 20.815 22.595Z" fill="#D0CDE1"/><path d="m140.069 156.788 4.791 5.59c1.78-.339 3.639-.738 5.554-1.186l-1.376-4.404 3.365 3.926c20.284-4.989 45.425-14.688 45.425-14.688s-27.143 1.99-47.409-2.438c-8.967-1.959-18.193 2.486-21.873 10.895-2.138 4.887-1.803 9.122 5.783 9.122 2.563-.044 5.119-.285 7.645-.72l-1.905-6.097Z" fill="#00BAFC"/><path d="M249.297 248.663v2.281c.001.625-.115 1.246-.342 1.829-.101.26-.223.511-.365.751-.447.752-1.083 1.374-1.843 1.806-.761.432-1.621.659-2.495.659H76.5076c-.8747 0-1.7345-.227-2.4951-.659-.7606-.432-1.3959-1.054-1.8436-1.806-.1416-.24-.2635-.491-.3643-.751-.2272-.583-.3432-1.204-.3419-1.829v-2.281c-.0002-.662.1302-1.318.3837-1.93.2535-.613.6251-1.169 1.0936-1.637.4684-.469 1.0247-.84 1.6368-1.094.6122-.253 1.2683-.384 1.9308-.383h9.6691v-1.064c0-.027.0054-.055.0159-.08.0106-.026.0261-.049.0456-.068.0196-.02.0428-.035.0683-.046.0256-.011.0529-.016.0806-.016h5.0449c.0276 0 .055.005.0805.016.0256.011.0488.026.0683.046.0196.019.0351.042.0456.068.0106.025.016.053.0159.08v1.064h3.1517v-1.064c-.0001-.027.0054-.055.0159-.08.0106-.026.0261-.049.0456-.068.0195-.02.0428-.035.0683-.046.0255-.011.0529-.016.0806-.016h5.0446c.028 0 .055.005.081.016.025.011.049.026.068.046.02.019.035.042.046.068.01.025.016.053.016.08v1.064h3.155v-1.064c0-.027.005-.055.016-.08.011-.026.026-.049.046-.068.019-.02.042-.035.068-.046.025-.011.053-.016.08-.016h5.045c.028 0 .055.005.081.016.025.011.049.026.068.046.02.019.035.042.046.068.01.025.016.053.016.08v1.064h3.151v-1.064c0-.027.006-.055.016-.08.011-.026.026-.049.046-.068.019-.02.043-.035.068-.046.026-.011.053-.016.081-.016h5.045c.027 0 .055.005.08.016.026.011.049.026.068.046.02.019.035.042.046.068.011.025.016.053.016.08v1.064h3.152v-1.064c0-.027.005-.055.016-.08.01-.026.026-.049.045-.068.02-.02.043-.035.068-.046.026-.011.053-.016.081-.016h5.045c.028 0 .055.005.08.016.026.011.049.026.069.046.019.019.035.042.045.068.011.025.016.053.016.08v1.064h3.156v-1.064c0-.027.005-.055.016-.08.01-.026.026-.049.045-.068.02-.02.043-.035.068-.046.026-.011.053-.016.081-.016h5.045c.028 0 .055.005.08.016.026.011.049.026.069.046.019.019.035.042.045.068.011.025.016.053.016.08v1.064h3.152v-1.064c0-.027.005-.055.016-.08.01-.026.026-.049.045-.068.02-.02.043-.035.069-.046.025-.011.053-.016.08-.016h39.518c.028 0 .055.005.081.016.025.011.048.026.068.046.02.019.035.042.046.068.01.025.016.053.015.08v1.064h3.156v-1.064c0-.027.005-.055.016-.08.01-.026.026-.049.045-.068.02-.02.043-.035.069-.046.025-.011.053-.016.08-.016h5.045c.056.001.109.023.148.062.04.04.062.093.063.148v1.064h3.151v-1.064c0-.027.006-.055.016-.08.011-.026.026-.049.046-.068.019-.02.042-.035.068-.046.026-.011.053-.016.081-.016h5.044c.028 0 .056.005.081.016.026.011.049.026.068.046.02.019.035.042.046.068.01.025.016.053.016.08v1.064h3.152v-1.064c-.001-.027.005-.055.015-.08.011-.026.026-.049.046-.068.02-.02.043-.035.068-.046.026-.011.053-.016.081-.016h5.045c.027 0 .055.005.08.016.026.011.049.026.069.046.019.019.035.042.045.068.011.025.016.053.016.08v1.064h3.156v-1.064c0-.027.005-.055.015-.08.011-.026.027-.049.046-.068.02-.02.043-.035.068-.046.026-.011.053-.016.081-.016h5.045c.055.001.108.023.146.063.039.039.061.092.06.147v1.064h3.156v-1.064c0-.027.005-.055.016-.08.01-.026.026-.049.045-.068.02-.02.043-.035.069-.046.025-.011.053-.016.08-.016h5.045c.028 0 .055.005.081.016.025.011.048.026.068.046.02.019.035.042.046.068.01.025.016.053.015.08v1.064h3.152v-1.064c0-.027.006-.055.016-.08.011-.026.026-.049.046-.068.019-.02.042-.035.068-.046.025-.011.053-.016.08-.016h5.045c.028 0 .055.005.081.016.026.011.049.026.068.046.02.019.035.042.046.068.01.025.016.053.016.08v1.064h14.714c.662-.001 1.318.13 1.931.383.612.254 1.168.625 1.636 1.094.469.468.841 1.024 1.094 1.637.253.612.384 1.268.384 1.93Z" fill="#3F3D56"/><path d="M298.074 252.773H22.7266v.751H298.074v-.751ZM235.79 152.638h-62.523v-1.289h-28.351v1.289H82.135c-1.1216 0-2.1974.445-2.9905 1.238-.7931.794-1.2387 1.869-1.2387 2.991v85.614c0 1.121.4456 2.197 1.2387 2.99.7931.793 1.8689 1.239 2.9905 1.239H235.79c1.122 0 2.197-.446 2.991-1.239.793-.793 1.238-1.869 1.238-2.99v-85.614c0-.556-.109-1.105-.322-1.619-.212-.513-.524-.979-.916-1.372-.393-.392-.859-.704-1.372-.916-.514-.213-1.064-.322-1.619-.322Z" fill="#3F3D56"/><path d="M159.086 191.919c5.186 0 9.391-4.205 9.391-9.392 0-5.186-4.205-9.391-9.391-9.391-5.187 0-9.392 4.205-9.392 9.391 0 5.187 4.205 9.392 9.392 9.392Z" stroke="#D0CDE1" stroke-width="2" stroke-miterlimit="10"/><path d="M156.08 195.299c5.187 0 9.392-4.204 9.392-9.391 0-5.186-4.205-9.391-9.392-9.391-5.186 0-9.391 4.205-9.391 9.391 0 5.187 4.205 9.391 9.391 9.391ZM40.7372 248.978H30.2191v10.518h10.5181v-10.518Z" fill="#D0CDE1"/><path d="M34.3527 240.714v12.772h12.7719v-12.772H34.3527Zm12.216 12.216H34.9049v-11.66h11.6638v11.66Z" fill="#3F3D56"/><path d="M284.155 248.978h-10.518v10.518h10.518v-10.518Z" fill="#D0CDE1"/><path d="M277.77 240.714v12.772h12.772v-12.772H277.77Zm12.216 12.216h-11.663v-11.66h11.663v11.66Z" fill="#3F3D56"/><path d="M35.5285 87.0339c16.4602 0 29.8038-13.3436 29.8038-29.8038S51.9887 27.4263 35.5285 27.4263 5.7247 40.7699 5.7247 57.2301s13.3436 29.8038 29.8038 29.8038Z" fill="#00BAFC"/><path d="M45.9147 21.8132c-2.6986-.3432-5.4298-.3432-8.1283 0-6.012.7894-11.6714 3.2868-16.3066 7.1961-4.6352 3.9092-8.0516 9.0661-9.844 14.8587-.8151 2.6399-1.2768 5.3761-1.3728 8.1373-.0135.3839-.0226.7722-.0226 1.1606.0084 8.3809 3.3415 16.4162 9.2677 22.3424 5.9262 5.9263 13.9615 9.2593 22.3425 9.2677.6728 0 1.3456-.0226 2.0095-.0633 1.5582-.0977 3.1069-.3121 4.6331-.6412 7.2882-1.5673 13.7881-5.6597 18.3517-11.5544 4.5635-5.8948 6.8971-13.2126 6.5887-20.6611-.3085-7.4484-3.2393-14.5482-8.2746-20.0454-5.0354-5.4972-11.8515-9.0382-19.2443-9.9974Zm5.8298 60.4249H51.74c-2.5458.8688-5.1956 1.3957-7.88 1.567-.6638.0452-1.3366.0677-2.0095.0677-8.1409-.0099-15.9456-3.2483-21.7021-9.0048-5.7565-5.7565-8.9949-13.5612-9.0048-21.7021 0-.3884.009-.7767.0225-1.1606.3105-7.9337 3.6778-15.4399 9.3972-20.9472 5.7194-5.5072 13.3474-8.5886 21.2872-8.5992 7.2749.0004 14.3134 2.5835 19.8615 7.2891 5.5481 4.7056 9.2454 11.228 10.4333 18.4053 1.1879 7.1772-.2108 14.5431-3.947 20.7853-3.7361 6.2422-9.567 10.9553-16.4538 13.2995Z" fill="#3F3D56"/><path d="M42.3021 24.2651h-.9032v6.3221h.9032v-6.3221ZM21.734 32.4107l-.6386.6386 4.4703 4.4704.6386-.6387-4.4703-4.4703ZM12.9498 52.7143v.9031h6.322v-.9031h-6.322ZM21.0954 73.2824l.6386.6386 4.4703-4.4703-.6386-.6386-4.4703 4.4703ZM57.4968 36.881l.6386.6387 4.4703-4.4704-.6386-.6386-4.4703 4.4703ZM64.4292 52.7143v.9031h6.322v-.9031h-6.322ZM58.1353 68.8121l-.6386.6386 4.4703 4.4703.6387-.6386-4.4704-4.4703ZM42.3021 75.7445h-.9032v6.322h.9032v-6.322ZM43.2053 51.3595c-.3909-.2931-.8662-.4515-1.3548-.4515-.4885 0-.9639.1584-1.3547.4515-.2675.2033-.4878.4621-.6457.7587-.2001.3819-.2866.8131-.2494 1.2426.0372.4295.1966.8394.4593 1.1812.2628.3418.6179.6013 1.0234.7477.4055.1465.8444.1738 1.2649.0787.4206-.0951.8051-.3086 1.1081-.6152.3031-.3067.512-.6937.6021-1.1153.0901-.4216.0577-.8602-.0935-1.2639-.1512-.4038-.4148-.7558-.7597-1.0145Zm-1.3548 3.161c-.3589-.001-.7029-.1441-.9567-.3979-.2539-.2538-.3969-.5978-.398-.9568.0018-.274.0851-.5412.2394-.7677.1323-.1916.3118-.3458.5212-.4478.2093-.1019.4415-.1481.6739-.1341.2325.014.4574.0878.653.2141.1956.1264.3553.3011.4636.5072.1083.2062.1617.4368.1548.6696-.0069.2327-.0737.4598-.194.6592-.1203.1994-.29.3644-.4927.479-.2027.1146-.4316.1749-.6645.1752ZM45.9147 13.879h-8.1283v8.1283h8.1283V13.879Z" fill="#3F3D56"/><path d="M41.8505 15.2337c5.9855 0 10.8377-1.7184 10.8377-3.8383S47.836 7.55701 41.8505 7.55701 31.0128 9.2755 31.0128 11.3954s4.8522 3.8383 10.8377 3.8383ZM43.2052 36.0061h-2.7094v15.3535h2.7094V36.0061ZM84.8957 83.4001H0v.9032h84.8957v-.9032Z" fill="#3F3D56"/><path d="M56.5697 225.887c.3505 12.002-6.6621 16.401-15.4628 16.658-.2044.006-.4079.009-.6105.011-.4081.003-.8123-.004-1.2125-.021-7.9592-.33-14.2595-4.555-14.5854-15.717-.3374-11.551 13.9998-26.559 15.0755-27.669l.0019-.001c.0409-.043.0618-.064.0618-.064s16.3815 14.802 16.732 26.803Z" fill="#D0CDE1"/><path d="m40.4734 240.726 5.5904-8.314-5.579 9.208.0116.936c-.4081.003-.8122-.004-1.2124-.021l.2772-12.025-.0076-.093.0103-.018.0265-1.136-6.1222-8.889 6.115 8.039.0217.24.2094-9.086-5.2879-9.215 5.303 7.619-.0554-18.822.0001-.063.0018.062.3511 14.835 4.8193-6.026-4.8036 7.304.1052 8.126 4.4348-7.931-4.4185 9.126.0586 4.519 6.4493-11.048-6.4297 12.624.131 10.049Z" fill="#3F3D56"/><path d="M299.987 225.887c.351 12.002-6.662 16.401-15.462 16.658-.205.006-.408.009-.611.011-.408.003-.812-.004-1.212-.021-7.96-.33-14.26-4.555-14.586-15.717-.337-11.551 14-26.559 15.076-27.669l.002-.001c.04-.043.061-.064.061-.064s16.382 14.802 16.732 26.803Z" fill="#D0CDE1"/><path d="m283.891 240.726 5.591-8.314-5.579 9.208.011.936c-.408.003-.812-.004-1.212-.021l.277-12.025-.008-.093.011-.018.026-1.136-6.122-8.889 6.115 8.039.022.24.209-9.086-5.288-9.215 5.303 7.619-.055-18.822v-.063l.002.062.351 14.835 4.819-6.026-4.804 7.304.106 8.126 4.434-7.931-4.418 9.126.058 4.519 6.45-11.048-6.43 12.624.131 10.049Z" fill="#3F3D56"/></g><defs><clipPath id="a"><path fill="#fff" transform="translate(0 .593018)" d="M0 0h300v258.903H0z"/></clipPath></defs></svg>